# xmcd
#
# Track frame offsets:
# 150
# 21775
# 35111
# 52619
# 66865
# 83959
# 105459
# 131013
# 146015
# 163819
#
# Disc length: 2390 seconds
#
#
# Revision: 0
# Processed by: cddbd v1.5.2PL0 Copyright (c) Steve Scherf et al.
# Submitted via: FreeRIP 2.96 
#
DISCID=8509540a
DTITLE=Douglas Araujo - Tudo por nao dizer
DYEAR=2009
DGENRE=Pop
TTITLE0=Tudo por não dizer
TTITLE1=Pingaiada
TTITLE2=Cabra Macho
TTITLE3=Nossa cultura
TTITLE4=Quem é voce
TTITLE5=Briga me xinga
TTITLE6=Fazenda Aurora
TTITLE7=Chacoalhando Pra valer
TTITLE8=Nobrilho do olhar
TTITLE9=Amigo Jose
EXTD=
EXTT0=
EXTT1=
EXTT2=
EXTT3=
EXTT4=
EXTT5=
EXTT6=
EXTT7=
EXTT8=
EXTT9=
PLAYORDER=
